<svg width="210" height="36" viewBox="0 0 210 36" fill="none" xmlns="http://www.w3.org/2000/svg">
<mask id="mask0_0_1" style="mask-type:luminance" maskUnits="userSpaceOnUse" x="0" y="4" width="228" height="28">
<path d="M228 4H0V32H228V4Z" fill="white"/>
</mask>
<g mask="url(#mask0_0_1)">
<g filter="url(#filter0_d_0_1)">
<path d="M45.34 14.265C46.53 14.585 47.42 15.01 48.01 15.54C48.6 16.06 48.895 16.74 48.895 17.58C48.895 18.25 48.685 18.85 48.265 19.38C47.845 19.91 47.225 20.325 46.405 20.625C45.595 20.925 44.61 21.075 43.45 21.075C42.08 21.075 40.87 20.9 39.82 20.55C38.78 20.19 37.965 19.755 37.375 19.245L37.87 18.57C38.39 18.98 39.045 19.33 39.835 19.62C40.625 19.91 41.475 20.055 42.385 20.055C42.975 20.055 43.42 19.97 43.72 19.8C44.03 19.63 44.185 19.39 44.185 19.08C44.185 18.54 43.65 18.12 42.58 17.82L40.63 17.25C39.57 16.93 38.75 16.485 38.17 15.915C37.6 15.345 37.315 14.67 37.315 13.89C37.315 13.24 37.52 12.65 37.93 12.12C38.34 11.59 38.935 11.175 39.715 10.875C40.505 10.565 41.45 10.41 42.55 10.41C43.6 10.41 44.565 10.53 45.445 10.77C46.335 11.01 47.06 11.3 47.62 11.64L47.125 12.33C46.655 12.06 46.09 11.83 45.43 11.64C44.78 11.45 44.095 11.355 43.375 11.355C42.745 11.355 42.26 11.455 41.92 11.655C41.59 11.845 41.425 12.11 41.425 12.45C41.425 12.71 41.55 12.94 41.8 13.14C42.05 13.33 42.525 13.52 43.225 13.71L45.34 14.265ZM49.6514 10.5H54.7514V15.195H58.0664V10.5H63.1664V21H58.0664V16.2H54.7514V21H49.6514V10.5ZM71.0269 21.075C69.6869 21.075 68.4769 20.87 67.3969 20.46C66.3169 20.05 65.4619 19.445 64.8319 18.645C64.2119 17.835 63.9019 16.865 63.9019 15.735C63.9019 14.615 64.2169 13.655 64.8469 12.855C65.4769 12.055 66.3269 11.45 67.3969 11.04C68.4769 10.62 69.6869 10.41 71.0269 10.41C72.3569 10.41 73.5569 10.62 74.6269 11.04C75.7069 11.45 76.5569 12.055 77.1769 12.855C77.8069 13.655 78.1219 14.615 78.1219 15.735C78.1219 16.865 77.8069 17.835 77.1769 18.645C76.5569 19.445 75.7069 20.05 74.6269 20.46C73.5569 20.87 72.3569 21.075 71.0269 21.075ZM71.0269 20.19C71.4469 20.19 71.7569 20 71.9569 19.62C72.1269 19.33 72.2419 18.815 72.3019 18.075C72.3319 17.685 72.3469 16.905 72.3469 15.735C72.3469 14.555 72.3219 13.72 72.2719 13.23C72.2419 12.63 72.1319 12.175 71.9419 11.865C71.7419 11.485 71.4369 11.295 71.0269 11.295C70.6069 11.295 70.2919 11.485 70.0819 11.865C69.9119 12.165 69.8019 12.62 69.7519 13.23C69.7119 13.75 69.6919 14.585 69.6919 15.735C69.6919 17.035 69.7069 17.815 69.7369 18.075C69.7769 18.765 69.8869 19.28 70.0669 19.62C70.2769 20 70.5969 20.19 71.0269 20.19ZM78.8604 10.5H83.2704L87.6504 15.75V10.5H88.5504V21H85.0254L79.7754 14.01V21H78.8604V10.5ZM97.3127 14.265C98.5027 14.585 99.3927 15.01 99.9827 15.54C100.573 16.06 100.868 16.74 100.868 17.58C100.868 18.25 100.658 18.85 100.238 19.38C99.8177 19.91 99.1977 20.325 98.3777 20.625C97.5677 20.925 96.5827 21.075 95.4227 21.075C94.0527 21.075 92.8427 20.9 91.7927 20.55C90.7527 20.19 89.9377 19.755 89.3477 19.245L89.8427 18.57C90.3627 18.98 91.0177 19.33 91.8077 19.62C92.5977 19.91 93.4477 20.055 94.3577 20.055C94.9477 20.055 95.3927 19.97 95.6927 19.8C96.0027 19.63 96.1577 19.39 96.1577 19.08C96.1577 18.54 95.6227 18.12 94.5527 17.82L92.6027 17.25C91.5427 16.93 90.7227 16.485 90.1427 15.915C89.5727 15.345 89.2877 14.67 89.2877 13.89C89.2877 13.24 89.4927 12.65 89.9027 12.12C90.3127 11.59 90.9077 11.175 91.6877 10.875C92.4777 10.565 93.4227 10.41 94.5227 10.41C95.5727 10.41 96.5377 10.53 97.4177 10.77C98.3077 11.01 99.0327 11.3 99.5927 11.64L99.0977 12.33C98.6277 12.06 98.0627 11.83 97.4027 11.64C96.7527 11.45 96.0677 11.355 95.3477 11.355C94.7177 11.355 94.2327 11.455 93.8927 11.655C93.5627 11.845 93.3977 12.11 93.3977 12.45C93.3977 12.71 93.5227 12.94 93.7727 13.14C94.0227 13.33 94.4977 13.52 95.1977 13.71L97.3127 14.265ZM108.025 10.5H115.915C117.345 10.5 118.58 11.01 119.62 12.03C120.65 13.06 121.165 14.295 121.165 15.735C121.165 17.195 120.65 18.44 119.62 19.47C118.59 20.49 117.355 21 115.915 21H108.025V10.5ZM114.175 20.13C114.745 20.13 115.155 19.945 115.405 19.575C115.645 19.215 115.795 18.705 115.855 18.045C115.905 17.615 115.93 16.845 115.93 15.735C115.93 14.875 115.9 14.055 115.84 13.275C115.78 12.685 115.63 12.235 115.39 11.925C115.14 11.555 114.735 11.37 114.175 11.37H113.275V20.13H114.175ZM121.898 10.5H132.803V11.385H127.178V15.27H129.938V16.17H127.178V20.1H132.803V21H121.898V10.5ZM141.038 14.265C142.228 14.585 143.118 15.01 143.708 15.54C144.298 16.06 144.593 16.74 144.593 17.58C144.593 18.25 144.383 18.85 143.963 19.38C143.543 19.91 142.923 20.325 142.103 20.625C141.293 20.925 140.308 21.075 139.148 21.075C137.778 21.075 136.568 20.9 135.518 20.55C134.478 20.19 133.663 19.755 133.073 19.245L133.568 18.57C134.088 18.98 134.743 19.33 135.533 19.62C136.323 19.91 137.173 20.055 138.083 20.055C138.673 20.055 139.118 19.97 139.418 19.8C139.728 19.63 139.883 19.39 139.883 19.08C139.883 18.54 139.348 18.12 138.278 17.82L136.328 17.25C135.268 16.93 134.448 16.485 133.868 15.915C133.298 15.345 133.013 14.67 133.013 13.89C133.013 13.24 133.218 12.65 133.628 12.12C134.038 11.59 134.633 11.175 135.413 10.875C136.203 10.565 137.148 10.41 138.248 10.41C139.298 10.41 140.263 10.53 141.143 10.77C142.033 11.01 142.758 11.3 143.318 11.64L142.823 12.33C142.353 12.06 141.788 11.83 141.128 11.64C140.478 11.45 139.793 11.355 139.073 11.355C138.443 11.355 137.958 11.455 137.618 11.655C137.288 11.845 137.123 12.11 137.123 12.45C137.123 12.71 137.248 12.94 137.498 13.14C137.748 13.33 138.223 13.52 138.923 13.71L141.038 14.265ZM145.35 10.5H150.24V21H145.35V10.5ZM151.092 15.735C151.092 13.965 151.527 12.65 152.397 11.79C152.957 11.23 153.582 10.86 154.272 10.68C154.962 10.5 155.867 10.41 156.987 10.41C158.027 10.41 158.862 10.485 159.492 10.635C160.132 10.775 160.657 11.08 161.067 11.55C161.407 11.94 161.672 12.415 161.862 12.975C162.062 13.525 162.177 14.065 162.207 14.595H161.352C161.312 14.145 161.202 13.685 161.022 13.215C160.852 12.735 160.582 12.325 160.212 11.985C159.842 11.635 159.372 11.46 158.802 11.46C158.272 11.46 157.832 11.695 157.482 12.165C157.182 12.575 156.967 13.12 156.837 13.8C156.717 14.4 156.657 15.045 156.657 15.735C156.657 16.865 156.797 17.81 157.077 18.57C157.447 19.54 158.022 20.025 158.802 20.025V15.87H163.392V21C161.952 21 160.322 21.02 158.502 21.06L156.987 21.075C155.887 21.075 154.992 20.97 154.302 20.76C153.622 20.54 153.037 20.185 152.547 19.695C151.577 18.725 151.092 17.405 151.092 15.735ZM164.232 10.5H168.642L173.022 15.75V10.5H173.922V21H170.397L165.147 14.01V21H164.232V10.5ZM182.684 14.265C183.874 14.585 184.764 15.01 185.354 15.54C185.944 16.06 186.239 16.74 186.239 17.58C186.239 18.25 186.029 18.85 185.609 19.38C185.189 19.91 184.569 20.325 183.749 20.625C182.939 20.925 181.954 21.075 180.794 21.075C179.424 21.075 178.214 20.9 177.164 20.55C176.124 20.19 175.309 19.755 174.719 19.245L175.214 18.57C175.734 18.98 176.389 19.33 177.179 19.62C177.969 19.91 178.819 20.055 179.729 20.055C180.319 20.055 180.764 19.97 181.064 19.8C181.374 19.63 181.529 19.39 181.529 19.08C181.529 18.54 180.994 18.12 179.924 17.82L177.974 17.25C176.914 16.93 176.094 16.485 175.514 15.915C174.944 15.345 174.659 14.67 174.659 13.89C174.659 13.24 174.864 12.65 175.274 12.12C175.684 11.59 176.279 11.175 177.059 10.875C177.849 10.565 178.794 10.41 179.894 10.41C180.944 10.41 181.909 10.53 182.789 10.77C183.679 11.01 184.404 11.3 184.964 11.64L184.469 12.33C183.999 12.06 183.434 11.83 182.774 11.64C182.124 11.45 181.439 11.355 180.719 11.355C180.089 11.355 179.604 11.455 179.264 11.655C178.934 11.845 178.769 12.11 178.769 12.45C178.769 12.71 178.894 12.94 179.144 13.14C179.394 13.33 179.869 13.52 180.569 13.71L182.684 14.265Z" fill="white"/>
</g>
<path d="M28.7955 4C25.391 4 20.2618 10.22 20.2618 10.22L15.9975 15.405L13.8628 18L14.9277 19.295L10.6633 24.48L6.60897 19.555C5.85908 18.645 5.85908 17.355 6.60897 16.445L14.6327 6.695C15.5276 5.61 14.7327 4 13.2979 4H3.1995C1.43478 4 0 5.395 0 7.11V28.89C0 30.61 1.52476 32 3.1995 32C6.60397 32 11.7332 25.78 11.7332 25.78L15.9975 20.595L18.1322 18L17.0673 16.705L21.3317 11.52L25.386 16.445C26.1359 17.355 26.1359 18.645 25.386 19.555L17.3673 29.305C16.4724 30.39 17.2673 32 18.7021 32H28.8005C30.5652 32 32 30.605 32 28.89V7.11C32 5.39 30.4752 4 28.8005 4H28.7955Z" fill="white"/>
</g>
<defs>
<filter id="filter0_d_0_1" x="33.315" y="10.41" width="156.924" height="18.665" filterUnits="userSpaceOnUse" color-interpolation-filters="sRGB">
<feFlood flood-opacity="0" result="BackgroundImageFix"/>
<feColorMatrix in="SourceAlpha" type="matrix" values="0 0 0 0 0 0 0 0 0 0 0 0 0 0 0 0 0 0 127 0" result="hardAlpha"/>
<feOffset dy="4"/>
<feGaussianBlur stdDeviation="2"/>
<feComposite in2="hardAlpha" operator="out"/>
<feColorMatrix type="matrix" values="0 0 0 0 0 0 0 0 0 0 0 0 0 0 0 0 0 0 0.25 0"/>
<feBlend mode="normal" in2="BackgroundImageFix" result="effect1_dropShadow_0_1"/>
<feBlend mode="normal" in="SourceGraphic" in2="effect1_dropShadow_0_1" result="shape"/>
</filter>
</defs>
</svg>
